<svg xmlns="http://www.w3.org/2000/svg" xmlns:xlink="http://www.w3.org/1999/xlink" width="500" zoomAndPan="magnify" viewBox="0 0 375 82.499998" height="110" preserveAspectRatio="xMidYMid meet" version="1.0"><defs><g/><clipPath id="809f180724"><path d="M 9.328125 9 L 77.914062 9 L 77.914062 79 L 9.328125 79 Z M 9.328125 9 " clip-rule="nonzero"/></clipPath></defs><g fill="#ffffff" fill-opacity="1"><g transform="translate(88.501834, 62.156428)"><g><path d="M 34.8125 -8.25 L 34.8125 0 L 1.84375 0 L 1.84375 -6.515625 L 20.40625 -28.5625 L 2.3125 -28.5625 L 2.3125 -36.8125 L 34.03125 -36.8125 L 34.03125 -30.296875 L 15.46875 -8.25 Z M 34.8125 -8.25 "/></g></g></g><g fill="#ffffff" fill-opacity="1"><g transform="translate(126.264696, 62.156428)"><g><path d="M 38.703125 -36.8125 L 38.703125 0 L 28.296875 0 L 28.296875 -14.359375 L 14.09375 -14.359375 L 14.09375 0 L 3.6875 0 L 3.6875 -36.8125 L 14.09375 -36.8125 L 14.09375 -22.984375 L 28.296875 -22.984375 L 28.296875 -36.8125 Z M 38.703125 -36.8125 "/></g></g></g><g fill="#ffffff" fill-opacity="1"><g transform="translate(170.70702, 62.156428)"><g><path d="M 28.34375 -7.15625 L 12.78125 -7.15625 L 9.890625 0 L -0.734375 0 L 15.515625 -36.8125 L 25.765625 -36.8125 L 42.078125 0 L 31.234375 0 Z M 25.296875 -14.828125 L 20.5625 -26.609375 L 15.828125 -14.828125 Z M 25.296875 -14.828125 "/></g></g></g><g fill="#ffffff" fill-opacity="1"><g transform="translate(214.097449, 62.156428)"><g><path d="M 16.625 0.734375 C 13.644531 0.734375 10.75 0.367188 7.9375 -0.359375 C 5.132812 -1.097656 2.859375 -2.082031 1.109375 -3.3125 L 4.515625 -10.984375 C 6.171875 -9.898438 8.082031 -9.023438 10.25 -8.359375 C 12.425781 -7.691406 14.566406 -7.359375 16.671875 -7.359375 C 20.671875 -7.359375 22.671875 -8.359375 22.671875 -10.359375 C 22.671875 -11.410156 22.097656 -12.191406 20.953125 -12.703125 C 19.816406 -13.210938 17.988281 -13.75 15.46875 -14.3125 C 12.695312 -14.90625 10.378906 -15.539062 8.515625 -16.21875 C 6.660156 -16.90625 5.066406 -18.003906 3.734375 -19.515625 C 2.398438 -21.023438 1.734375 -23.054688 1.734375 -25.609375 C 1.734375 -27.859375 2.347656 -29.882812 3.578125 -31.6875 C 4.804688 -33.488281 6.640625 -34.914062 9.078125 -35.96875 C 11.515625 -37.019531 14.503906 -37.546875 18.046875 -37.546875 C 20.460938 -37.546875 22.84375 -37.273438 25.1875 -36.734375 C 27.539062 -36.191406 29.613281 -35.394531 31.40625 -34.34375 L 28.1875 -26.609375 C 24.6875 -28.503906 21.285156 -29.453125 17.984375 -29.453125 C 15.921875 -29.453125 14.414062 -29.144531 13.46875 -28.53125 C 12.519531 -27.914062 12.046875 -27.117188 12.046875 -26.140625 C 12.046875 -25.160156 12.601562 -24.421875 13.71875 -23.921875 C 14.84375 -23.429688 16.648438 -22.925781 19.140625 -22.40625 C 21.953125 -21.8125 24.273438 -21.171875 26.109375 -20.484375 C 27.953125 -19.796875 29.546875 -18.707031 30.890625 -17.21875 C 32.242188 -15.726562 32.921875 -13.707031 32.921875 -11.15625 C 32.921875 -8.945312 32.304688 -6.945312 31.078125 -5.15625 C 29.847656 -3.363281 28.003906 -1.929688 25.546875 -0.859375 C 23.097656 0.203125 20.125 0.734375 16.625 0.734375 Z M 16.625 0.734375 "/></g></g></g><g fill="#ffffff" fill-opacity="1"><g transform="translate(250.177297, 62.156428)"><g><path d="M 28.34375 -7.15625 L 12.78125 -7.15625 L 9.890625 0 L -0.734375 0 L 15.515625 -36.8125 L 25.765625 -36.8125 L 42.078125 0 L 31.234375 0 Z M 25.296875 -14.828125 L 20.5625 -26.609375 L 15.828125 -14.828125 Z M 25.296875 -14.828125 "/></g></g></g><g fill="#ffffff" fill-opacity="1"><g transform="translate(293.567719, 62.156428)"><g><path d="M 20.515625 -36.8125 C 23.847656 -36.8125 26.738281 -36.257812 29.1875 -35.15625 C 31.644531 -34.050781 33.539062 -32.472656 34.875 -30.421875 C 36.207031 -28.367188 36.875 -25.957031 36.875 -23.1875 C 36.875 -20.414062 36.207031 -18.015625 34.875 -15.984375 C 33.539062 -13.953125 31.644531 -12.382812 29.1875 -11.28125 C 26.738281 -10.175781 23.847656 -9.625 20.515625 -9.625 L 14.09375 -9.625 L 14.09375 0 L 3.6875 0 L 3.6875 -36.8125 Z M 19.875 -17.828125 C 22.019531 -17.828125 23.632812 -18.289062 24.71875 -19.21875 C 25.800781 -20.144531 26.34375 -21.46875 26.34375 -23.1875 C 26.34375 -24.90625 25.800781 -26.238281 24.71875 -27.1875 C 23.632812 -28.132812 22.019531 -28.609375 19.875 -28.609375 L 14.09375 -28.609375 L 14.09375 -17.828125 Z M 19.875 -17.828125 "/></g></g></g><g fill="#ffffff" fill-opacity="1"><g transform="translate(334.381049, 62.156428)"><g><path d="M 20.515625 -36.8125 C 23.847656 -36.8125 26.738281 -36.257812 29.1875 -35.15625 C 31.644531 -34.050781 33.539062 -32.472656 34.875 -30.421875 C 36.207031 -28.367188 36.875 -25.957031 36.875 -23.1875 C 36.875 -20.414062 36.207031 -18.015625 34.875 -15.984375 C 33.539062 -13.953125 31.644531 -12.382812 29.1875 -11.28125 C 26.738281 -10.175781 23.847656 -9.625 20.515625 -9.625 L 14.09375 -9.625 L 14.09375 0 L 3.6875 0 L 3.6875 -36.8125 Z M 19.875 -17.828125 C 22.019531 -17.828125 23.632812 -18.289062 24.71875 -19.21875 C 25.800781 -20.144531 26.34375 -21.46875 26.34375 -23.1875 C 26.34375 -24.90625 25.800781 -26.238281 24.71875 -27.1875 C 23.632812 -28.132812 22.019531 -28.609375 19.875 -28.609375 L 14.09375 -28.609375 L 14.09375 -17.828125 Z M 19.875 -17.828125 "/></g></g></g><g clip-path="url(#809f180724)"><path fill="#ffffff" d="M 61.273438 38.867188 C 61.628906 35.539062 61.988281 32.214844 62.347656 28.890625 C 50.394531 27.582031 38.445312 26.277344 26.492188 24.96875 C 32.242188 21.328125 38.792969 18.429688 45.582031 18.738281 C 51.921875 19.023438 57.984375 22.1875 62.25 26.90625 C 66.796875 31.933594 69.382812 38.886719 68.503906 45.621094 C 64.808594 46.621094 61.113281 47.621094 57.417969 48.621094 C 62.449219 48.621094 67.609375 49.417969 72.628906 49.808594 C 73.761719 49.898438 75.234375 50.277344 76.355469 50.101562 C 77.625 49.902344 77.433594 49.390625 77.601562 48.042969 C 77.855469 46.035156 77.921875 44.003906 77.8125 41.984375 C 77.785156 41.476562 77.746094 40.96875 77.699219 40.464844 C 76.960938 32.914062 73.777344 25.589844 68.632812 20.023438 C 68.140625 19.488281 67.628906 18.96875 67.101562 18.46875 C 58.707031 10.535156 46.171875 7.304688 35.015625 10.207031 C 23.859375 13.105469 14.453125 22.039062 10.941406 33.070312 C 23.179688 34.125 35.394531 35.4375 47.582031 37 L 33.425781 44.828125 L 26.296875 48.769531 L 26.238281 48.800781 L 26.203125 48.820312 L 25.988281 51.019531 C 25.988281 51.019531 25.644531 54.453125 25.628906 54.605469 C 25.503906 55.84375 25.40625 57.089844 25.253906 58.324219 C 37.007812 59.53125 48.753906 60.855469 60.5 62.121094 C 60.558594 62.128906 60.613281 62.136719 60.664062 62.140625 C 60.265625 62.140625 58.574219 63.871094 58.175781 64.144531 C 57.257812 64.785156 56.292969 65.363281 55.296875 65.871094 C 53.367188 66.855469 51.308594 67.589844 49.191406 68.070312 C 39.441406 70.273438 29.308594 66.367188 23.375 58.335938 C 21.3125 55.542969 19.816406 52.308594 19.191406 48.882812 C 19.136719 48.574219 19.105469 48.246094 19.050781 47.933594 C 18.367188 43.863281 18.761719 40.867188 18.761719 40.867188 L 30.53125 39.085938 C 28.121094 38.734375 25.691406 38.402344 23.253906 38.28125 L 21.519531 38.089844 L 15.730469 37.449219 L 13.757812 37.230469 L 9.804688 36.792969 C 9.777344 36.792969 9.757812 37.023438 9.75 37.402344 L 9.75 37.417969 C 9.613281 39.039062 9.332031 43.613281 9.902344 48.652344 C 11.445312 62.351562 21.828125 73.535156 34.953125 77.207031 C 48.40625 80.972656 63.71875 74.921875 71.742188 63.640625 C 72.757812 62.207031 73.664062 60.695312 74.441406 59.121094 C 74.648438 58.699219 76.425781 54.121094 76.421875 54.121094 L 73.144531 53.78125 L 65.800781 53.015625 L 65.402344 52.976562 L 40.28125 50.359375 L 39.273438 50.257812 L 39.328125 50.226562 L 41.136719 49.296875 L 42.761719 48.460938 L 46.914062 46.320312 L 61.265625 38.921875 " fill-opacity="1" fill-rule="nonzero"/></g></svg>