<svg xmlns="http://www.w3.org/2000/svg" xmlns:xlink="http://www.w3.org/1999/xlink" width="500" zoomAndPan="magnify" viewBox="0 0 375 82.499998" height="110" preserveAspectRatio="xMidYMid meet" version="1.0"><defs><g/><clipPath id="7b70af5eff"><path d="M 1.128906 0 L 373.871094 0 L 373.871094 82.003906 L 1.128906 82.003906 Z M 1.128906 0 " clip-rule="nonzero"/></clipPath><clipPath id="54dfabdff3"><path d="M 9.328125 7 L 82.386719 7 L 82.386719 81 L 9.328125 81 Z M 9.328125 7 " clip-rule="nonzero"/></clipPath></defs><g clip-path="url(#7b70af5eff)"><path fill="#ffffff" d="M 1.128906 0 L 373.871094 0 L 373.871094 89.457031 L 1.128906 89.457031 Z M 1.128906 0 " fill-opacity="1" fill-rule="nonzero"/><path fill="#ffffff" d="M 1.128906 0 L 373.871094 0 L 373.871094 82.003906 L 1.128906 82.003906 Z M 1.128906 0 " fill-opacity="1" fill-rule="nonzero"/><path fill="#ffffff" d="M 1.128906 0 L 373.871094 0 L 373.871094 82.003906 L 1.128906 82.003906 Z M 1.128906 0 " fill-opacity="1" fill-rule="nonzero"/></g><g fill="#000000" fill-opacity="1"><g transform="translate(88.501834, 62.156428)"><g><path d="M 34.8125 -8.25 L 34.8125 0 L 1.84375 0 L 1.84375 -6.515625 L 20.40625 -28.5625 L 2.3125 -28.5625 L 2.3125 -36.8125 L 34.03125 -36.8125 L 34.03125 -30.296875 L 15.46875 -8.25 Z M 34.8125 -8.25 "/></g></g></g><g fill="#000000" fill-opacity="1"><g transform="translate(126.264696, 62.156428)"><g><path d="M 38.703125 -36.8125 L 38.703125 0 L 28.296875 0 L 28.296875 -14.359375 L 14.09375 -14.359375 L 14.09375 0 L 3.6875 0 L 3.6875 -36.8125 L 14.09375 -36.8125 L 14.09375 -22.984375 L 28.296875 -22.984375 L 28.296875 -36.8125 Z M 38.703125 -36.8125 "/></g></g></g><g fill="#000000" fill-opacity="1"><g transform="translate(170.70702, 62.156428)"><g><path d="M 28.34375 -7.15625 L 12.78125 -7.15625 L 9.890625 0 L -0.734375 0 L 15.515625 -36.8125 L 25.765625 -36.8125 L 42.078125 0 L 31.234375 0 Z M 25.296875 -14.828125 L 20.5625 -26.609375 L 15.828125 -14.828125 Z M 25.296875 -14.828125 "/></g></g></g><g fill="#000000" fill-opacity="1"><g transform="translate(214.097449, 62.156428)"><g><path d="M 16.625 0.734375 C 13.644531 0.734375 10.75 0.367188 7.9375 -0.359375 C 5.132812 -1.097656 2.859375 -2.082031 1.109375 -3.3125 L 4.515625 -10.984375 C 6.171875 -9.898438 8.082031 -9.023438 10.25 -8.359375 C 12.425781 -7.691406 14.566406 -7.359375 16.671875 -7.359375 C 20.671875 -7.359375 22.671875 -8.359375 22.671875 -10.359375 C 22.671875 -11.410156 22.097656 -12.191406 20.953125 -12.703125 C 19.816406 -13.210938 17.988281 -13.75 15.46875 -14.3125 C 12.695312 -14.90625 10.378906 -15.539062 8.515625 -16.21875 C 6.660156 -16.90625 5.066406 -18.003906 3.734375 -19.515625 C 2.398438 -21.023438 1.734375 -23.054688 1.734375 -25.609375 C 1.734375 -27.859375 2.347656 -29.882812 3.578125 -31.6875 C 4.804688 -33.488281 6.640625 -34.914062 9.078125 -35.96875 C 11.515625 -37.019531 14.503906 -37.546875 18.046875 -37.546875 C 20.460938 -37.546875 22.84375 -37.273438 25.1875 -36.734375 C 27.539062 -36.191406 29.613281 -35.394531 31.40625 -34.34375 L 28.1875 -26.609375 C 24.6875 -28.503906 21.285156 -29.453125 17.984375 -29.453125 C 15.921875 -29.453125 14.414062 -29.144531 13.46875 -28.53125 C 12.519531 -27.914062 12.046875 -27.117188 12.046875 -26.140625 C 12.046875 -25.160156 12.601562 -24.421875 13.71875 -23.921875 C 14.84375 -23.429688 16.648438 -22.925781 19.140625 -22.40625 C 21.953125 -21.8125 24.273438 -21.171875 26.109375 -20.484375 C 27.953125 -19.796875 29.546875 -18.707031 30.890625 -17.21875 C 32.242188 -15.726562 32.921875 -13.707031 32.921875 -11.15625 C 32.921875 -8.945312 32.304688 -6.945312 31.078125 -5.15625 C 29.847656 -3.363281 28.003906 -1.929688 25.546875 -0.859375 C 23.097656 0.203125 20.125 0.734375 16.625 0.734375 Z M 16.625 0.734375 "/></g></g></g><g fill="#000000" fill-opacity="1"><g transform="translate(250.177297, 62.156428)"><g><path d="M 28.34375 -7.15625 L 12.78125 -7.15625 L 9.890625 0 L -0.734375 0 L 15.515625 -36.8125 L 25.765625 -36.8125 L 42.078125 0 L 31.234375 0 Z M 25.296875 -14.828125 L 20.5625 -26.609375 L 15.828125 -14.828125 Z M 25.296875 -14.828125 "/></g></g></g><g fill="#000000" fill-opacity="1"><g transform="translate(293.567719, 62.156428)"><g><path d="M 20.515625 -36.8125 C 23.847656 -36.8125 26.738281 -36.257812 29.1875 -35.15625 C 31.644531 -34.050781 33.539062 -32.472656 34.875 -30.421875 C 36.207031 -28.367188 36.875 -25.957031 36.875 -23.1875 C 36.875 -20.414062 36.207031 -18.015625 34.875 -15.984375 C 33.539062 -13.953125 31.644531 -12.382812 29.1875 -11.28125 C 26.738281 -10.175781 23.847656 -9.625 20.515625 -9.625 L 14.09375 -9.625 L 14.09375 0 L 3.6875 0 L 3.6875 -36.8125 Z M 19.875 -17.828125 C 22.019531 -17.828125 23.632812 -18.289062 24.71875 -19.21875 C 25.800781 -20.144531 26.34375 -21.46875 26.34375 -23.1875 C 26.34375 -24.90625 25.800781 -26.238281 24.71875 -27.1875 C 23.632812 -28.132812 22.019531 -28.609375 19.875 -28.609375 L 14.09375 -28.609375 L 14.09375 -17.828125 Z M 19.875 -17.828125 "/></g></g></g><g fill="#000000" fill-opacity="1"><g transform="translate(334.381049, 62.156428)"><g><path d="M 20.515625 -36.8125 C 23.847656 -36.8125 26.738281 -36.257812 29.1875 -35.15625 C 31.644531 -34.050781 33.539062 -32.472656 34.875 -30.421875 C 36.207031 -28.367188 36.875 -25.957031 36.875 -23.1875 C 36.875 -20.414062 36.207031 -18.015625 34.875 -15.984375 C 33.539062 -13.953125 31.644531 -12.382812 29.1875 -11.28125 C 26.738281 -10.175781 23.847656 -9.625 20.515625 -9.625 L 14.09375 -9.625 L 14.09375 0 L 3.6875 0 L 3.6875 -36.8125 Z M 19.875 -17.828125 C 22.019531 -17.828125 23.632812 -18.289062 24.71875 -19.21875 C 25.800781 -20.144531 26.34375 -21.46875 26.34375 -23.1875 C 26.34375 -24.90625 25.800781 -26.238281 24.71875 -27.1875 C 23.632812 -28.132812 22.019531 -28.609375 19.875 -28.609375 L 14.09375 -28.609375 L 14.09375 -17.828125 Z M 19.875 -17.828125 "/></g></g></g><g clip-path="url(#54dfabdff3)"><path fill="#000000" d="M 64.660156 38.589844 C 65.042969 35.0625 65.421875 31.535156 65.804688 28.011719 C 53.074219 26.621094 40.34375 25.234375 27.609375 23.847656 C 33.738281 19.988281 40.714844 16.914062 47.949219 17.242188 C 54.699219 17.542969 61.15625 20.898438 65.703125 25.90625 C 70.542969 31.234375 73.300781 38.609375 72.363281 45.753906 C 68.425781 46.816406 64.488281 47.875 60.550781 48.9375 C 65.914062 48.9375 71.410156 49.785156 76.753906 50.199219 C 77.964844 50.292969 79.53125 50.695312 80.726562 50.507812 C 82.082031 50.296875 81.875 49.753906 82.054688 48.324219 C 82.324219 46.195312 82.394531 44.039062 82.28125 41.898438 C 82.25 41.359375 82.210938 40.820312 82.15625 40.285156 C 81.371094 32.277344 77.980469 24.507812 72.5 18.601562 C 71.976562 18.035156 71.429688 17.484375 70.867188 16.957031 C 61.925781 8.539062 48.574219 5.113281 36.691406 8.1875 C 24.808594 11.265625 14.785156 20.742188 11.042969 32.441406 C 24.082031 33.5625 37.097656 34.953125 50.074219 36.613281 L 35 44.914062 L 27.40625 49.097656 L 27.34375 49.128906 L 27.304688 49.152344 L 27.074219 51.480469 C 27.074219 51.480469 26.710938 55.125 26.691406 55.289062 C 26.558594 56.601562 26.457031 57.921875 26.292969 59.230469 C 38.8125 60.511719 51.324219 61.914062 63.835938 63.257812 C 63.898438 63.265625 63.957031 63.273438 64.011719 63.277344 C 63.589844 63.277344 61.785156 65.113281 61.359375 65.40625 C 60.382812 66.085938 59.355469 66.695312 58.292969 67.238281 C 56.238281 68.28125 54.046875 69.058594 51.792969 69.566406 C 41.40625 71.90625 30.613281 67.765625 24.292969 59.242188 C 22.09375 56.28125 20.5 52.851562 19.835938 49.214844 C 19.773438 48.886719 19.742188 48.539062 19.6875 48.207031 C 18.957031 43.894531 19.378906 40.710938 19.378906 40.710938 L 31.910156 38.824219 C 29.347656 38.449219 26.761719 38.097656 24.164062 37.96875 L 22.316406 37.765625 L 16.148438 37.085938 L 14.046875 36.855469 L 9.835938 36.390625 C 9.808594 36.390625 9.785156 36.636719 9.777344 37.039062 L 9.777344 37.054688 C 9.632812 38.773438 9.332031 43.625 9.9375 48.96875 C 11.582031 63.5 22.644531 75.363281 36.625 79.261719 C 50.953125 83.253906 67.265625 76.839844 75.8125 64.871094 C 76.894531 63.351562 77.859375 61.746094 78.6875 60.078125 C 78.910156 59.628906 80.800781 54.773438 80.796875 54.773438 L 77.304688 54.414062 L 69.484375 53.597656 L 69.058594 53.558594 L 42.296875 50.78125 L 41.226562 50.671875 L 41.285156 50.640625 L 43.214844 49.65625 L 44.941406 48.765625 L 49.367188 46.496094 L 64.652344 38.648438 " fill-opacity="1" fill-rule="nonzero"/></g></svg>